<svg xmlns="http://www.w3.org/2000/svg" xmlns:xlink="http://www.w3.org/1999/xlink" xmlns:serif="http://www.serif.com/" width="1667" height="1667" viewBox="0 0 1667 1667" xml:space="preserve" style="fill-rule:evenodd;clip-rule:evenodd;stroke-miterlimit:22.9256;">
    <g id="Capa-1" serif:id="Capa 1" fill="#0088AA">
    </g>
    <g id="Mesa-de-trabajo1" serif:id="Mesa de trabajo1" transform="matrix(0.846218,0,0,0.870659,-2328.35,-36.7696)" fill="#0088AA">
        <rect x="2751.48" y="42.232" width="1969.55" height="1914.26" style="" fill="none"></rect>
        <clipPath id="_clip1" fill="#0088AA">
            <rect x="2751.48" y="42.232" width="1969.55" height="1914.26" fill="#0088AA"></rect>
        </clipPath>
        <g clip-path="url(#_clip1)" fill="#0088AA">
            <g transform="matrix(3.20531,0,0,3.11533,2758.18,47.8046)" fill="#0088AA">
                <g transform="matrix(1,0,0,1,1,0.6624)" fill="#0088AA">
                    <path d="M304.143,608.34C471.96,608.34 608.002,472.297 608.002,304.48C608.002,136.663 471.96,0.621 304.143,0.621C136.326,0.621 0.284,136.663 0.284,304.48C0.284,472.297 136.326,608.34 304.143,608.34Z" style="" stroke="#0088AA" fill="#0088AA" stroke-width="0.87px"></path>
                </g>
                <g fill="#0088AA">
                    <g transform="matrix(110.388,0,0,110.388,25.7309,222.615)" fill="#0088AA">
                        <path d="M0.192,-0.455L0.192,-0.439C0.217,-0.47 0.243,-0.493 0.27,-0.507C0.297,-0.522 0.328,-0.529 0.362,-0.529C0.403,-0.529 0.441,-0.518 0.475,-0.497C0.51,-0.476 0.537,-0.445 0.557,-0.404C0.577,-0.364 0.587,-0.315 0.587,-0.26C0.587,-0.219 0.581,-0.181 0.57,-0.147C0.558,-0.112 0.542,-0.084 0.522,-0.06C0.502,-0.037 0.478,-0.019 0.45,-0.007C0.423,0.006 0.393,0.012 0.362,0.012C0.324,0.012 0.292,0.005 0.266,-0.011C0.24,-0.026 0.215,-0.049 0.192,-0.078L0.192,0.122C0.192,0.181 0.171,0.21 0.128,0.21C0.103,0.21 0.086,0.202 0.078,0.187C0.07,0.172 0.066,0.15 0.066,0.121L0.066,-0.454C0.066,-0.479 0.071,-0.498 0.083,-0.511C0.094,-0.524 0.109,-0.53 0.128,-0.53C0.147,-0.53 0.162,-0.523 0.174,-0.51C0.186,-0.498 0.192,-0.479 0.192,-0.455ZM0.453,-0.261C0.453,-0.296 0.448,-0.327 0.437,-0.352C0.426,-0.377 0.411,-0.396 0.392,-0.41C0.373,-0.423 0.352,-0.43 0.329,-0.43C0.292,-0.43 0.261,-0.416 0.236,-0.387C0.211,-0.358 0.198,-0.315 0.198,-0.259C0.198,-0.206 0.211,-0.164 0.236,-0.135C0.261,-0.106 0.292,-0.091 0.329,-0.091C0.351,-0.091 0.372,-0.097 0.391,-0.11C0.41,-0.123 0.425,-0.142 0.436,-0.168C0.447,-0.194 0.453,-0.225 0.453,-0.261Z" style="fill-rule: nonzero;" fill="#87CDDE"></path>
                    </g>
                    <g transform="matrix(110.388,0,0,110.388,94.7226,222.615)" fill="#0088AA">
                        <path d="M0.069,-0.069L0.069,-0.647C0.069,-0.674 0.075,-0.694 0.087,-0.708C0.099,-0.721 0.115,-0.728 0.135,-0.728C0.155,-0.728 0.171,-0.721 0.184,-0.708C0.196,-0.694 0.202,-0.674 0.202,-0.647L0.202,-0.069C0.202,-0.042 0.196,-0.022 0.183,-0.008C0.171,0.005 0.155,0.012 0.135,0.012C0.115,0.012 0.099,0.005 0.087,-0.009C0.075,-0.023 0.069,-0.043 0.069,-0.069Z" style="fill-rule: nonzero;" fill="#87CDDE"></path>
                    </g>
                    <g transform="matrix(110.388,0,0,110.388,124.637,222.615)" fill="#0088AA">
                        <path d="M0.406,-0.063C0.374,-0.038 0.342,-0.019 0.312,-0.007C0.282,0.006 0.248,0.012 0.211,0.012C0.177,0.012 0.147,0.005 0.121,-0.008C0.095,-0.022 0.075,-0.04 0.061,-0.063C0.047,-0.086 0.04,-0.111 0.04,-0.138C0.04,-0.175 0.052,-0.206 0.075,-0.231C0.098,-0.257 0.13,-0.274 0.17,-0.283C0.178,-0.285 0.199,-0.29 0.233,-0.296C0.266,-0.303 0.295,-0.309 0.319,-0.315C0.343,-0.321 0.369,-0.328 0.397,-0.336C0.395,-0.371 0.388,-0.397 0.376,-0.413C0.363,-0.43 0.337,-0.438 0.298,-0.438C0.264,-0.438 0.239,-0.433 0.221,-0.424C0.204,-0.414 0.19,-0.4 0.177,-0.381C0.165,-0.362 0.157,-0.35 0.152,-0.344C0.147,-0.338 0.136,-0.335 0.119,-0.335C0.104,-0.335 0.091,-0.34 0.08,-0.349C0.069,-0.359 0.064,-0.371 0.064,-0.386C0.064,-0.41 0.072,-0.432 0.089,-0.455C0.105,-0.477 0.131,-0.495 0.167,-0.509C0.202,-0.524 0.245,-0.531 0.298,-0.531C0.356,-0.531 0.403,-0.524 0.436,-0.51C0.47,-0.496 0.493,-0.474 0.507,-0.444C0.521,-0.414 0.528,-0.375 0.528,-0.325C0.528,-0.294 0.528,-0.267 0.528,-0.246C0.527,-0.224 0.527,-0.2 0.527,-0.173C0.527,-0.148 0.531,-0.122 0.539,-0.094C0.548,-0.067 0.552,-0.05 0.552,-0.042C0.552,-0.028 0.545,-0.016 0.532,-0.005C0.52,0.007 0.505,0.012 0.489,0.012C0.475,0.012 0.462,0.006 0.448,-0.007C0.435,-0.02 0.421,-0.039 0.406,-0.063ZM0.397,-0.256C0.377,-0.249 0.349,-0.241 0.312,-0.233C0.274,-0.225 0.249,-0.219 0.234,-0.216C0.22,-0.212 0.206,-0.205 0.193,-0.194C0.18,-0.183 0.174,-0.167 0.174,-0.148C0.174,-0.128 0.181,-0.111 0.197,-0.096C0.212,-0.082 0.232,-0.075 0.257,-0.075C0.283,-0.075 0.308,-0.081 0.33,-0.093C0.352,-0.104 0.368,-0.119 0.379,-0.137C0.391,-0.157 0.397,-0.191 0.397,-0.237L0.397,-0.256Z" style="fill-rule: nonzero;" fill="#87CDDE"></path>
                    </g>
                    <g transform="matrix(110.388,0,0,110.388,188.777,222.615)" fill="#0088AA">
                        <path d="M0.192,0.029L0.204,-0.001L0.04,-0.414C0.03,-0.438 0.025,-0.455 0.025,-0.466C0.025,-0.477 0.028,-0.488 0.034,-0.498C0.04,-0.507 0.048,-0.515 0.058,-0.521C0.068,-0.527 0.079,-0.53 0.09,-0.53C0.109,-0.53 0.124,-0.524 0.133,-0.511C0.143,-0.499 0.152,-0.482 0.159,-0.459L0.272,-0.131L0.379,-0.436C0.387,-0.461 0.395,-0.48 0.402,-0.494C0.409,-0.508 0.416,-0.518 0.424,-0.522C0.431,-0.527 0.442,-0.53 0.456,-0.53C0.466,-0.53 0.476,-0.527 0.485,-0.522C0.494,-0.516 0.502,-0.509 0.507,-0.5C0.512,-0.491 0.514,-0.481 0.514,-0.471C0.513,-0.465 0.511,-0.456 0.508,-0.445C0.505,-0.433 0.501,-0.422 0.497,-0.41L0.323,0.045C0.308,0.085 0.294,0.116 0.279,0.139C0.265,0.162 0.246,0.179 0.222,0.192C0.199,0.204 0.167,0.21 0.127,0.21C0.088,0.21 0.059,0.206 0.039,0.197C0.02,0.189 0.01,0.173 0.01,0.151C0.01,0.136 0.014,0.124 0.024,0.115C0.033,0.107 0.047,0.103 0.065,0.103C0.072,0.103 0.079,0.104 0.086,0.106C0.094,0.108 0.102,0.109 0.108,0.109C0.123,0.109 0.135,0.107 0.144,0.102C0.153,0.097 0.161,0.09 0.168,0.078C0.175,0.067 0.183,0.051 0.192,0.029Z" style="fill-rule: nonzero;" fill="#87CDDE"></path>
                    </g>
                    <g transform="matrix(110.388,0,0,110.388,247.151,222.615)" fill="#0088AA">
                        <path d="M0.406,-0.063C0.374,-0.038 0.342,-0.019 0.312,-0.007C0.282,0.006 0.248,0.012 0.211,0.012C0.177,0.012 0.147,0.005 0.121,-0.008C0.095,-0.022 0.075,-0.04 0.061,-0.063C0.047,-0.086 0.04,-0.111 0.04,-0.138C0.04,-0.175 0.052,-0.206 0.075,-0.231C0.098,-0.257 0.13,-0.274 0.17,-0.283C0.178,-0.285 0.199,-0.29 0.233,-0.296C0.266,-0.303 0.295,-0.309 0.319,-0.315C0.343,-0.321 0.369,-0.328 0.397,-0.336C0.395,-0.371 0.388,-0.397 0.376,-0.413C0.363,-0.43 0.337,-0.438 0.298,-0.438C0.264,-0.438 0.239,-0.433 0.221,-0.424C0.204,-0.414 0.19,-0.4 0.177,-0.381C0.165,-0.362 0.157,-0.35 0.152,-0.344C0.147,-0.338 0.136,-0.335 0.119,-0.335C0.104,-0.335 0.091,-0.34 0.08,-0.349C0.069,-0.359 0.064,-0.371 0.064,-0.386C0.064,-0.41 0.072,-0.432 0.089,-0.455C0.105,-0.477 0.131,-0.495 0.167,-0.509C0.202,-0.524 0.245,-0.531 0.298,-0.531C0.356,-0.531 0.403,-0.524 0.436,-0.51C0.47,-0.496 0.493,-0.474 0.507,-0.444C0.521,-0.414 0.528,-0.375 0.528,-0.325C0.528,-0.294 0.528,-0.267 0.528,-0.246C0.527,-0.224 0.527,-0.2 0.527,-0.173C0.527,-0.148 0.531,-0.122 0.539,-0.094C0.548,-0.067 0.552,-0.05 0.552,-0.042C0.552,-0.028 0.545,-0.016 0.532,-0.005C0.52,0.007 0.505,0.012 0.489,0.012C0.475,0.012 0.462,0.006 0.448,-0.007C0.435,-0.02 0.421,-0.039 0.406,-0.063ZM0.397,-0.256C0.377,-0.249 0.349,-0.241 0.312,-0.233C0.274,-0.225 0.249,-0.219 0.234,-0.216C0.22,-0.212 0.206,-0.205 0.193,-0.194C0.18,-0.183 0.174,-0.167 0.174,-0.148C0.174,-0.128 0.181,-0.111 0.197,-0.096C0.212,-0.082 0.232,-0.075 0.257,-0.075C0.283,-0.075 0.308,-0.081 0.33,-0.093C0.352,-0.104 0.368,-0.119 0.379,-0.137C0.391,-0.157 0.397,-0.191 0.397,-0.237L0.397,-0.256Z" style="fill-rule: nonzero;" fill="#87CDDE"></path>
                    </g>
                    <g transform="matrix(110.388,0,0,110.388,96.9136,297.034)" fill="#0088AA">
                        <path d="M0.512,-0.249L0.512,-0.072C0.512,-0.044 0.506,-0.023 0.493,-0.009C0.48,0.005 0.464,0.012 0.443,0.012C0.423,0.012 0.406,0.005 0.394,-0.009C0.381,-0.023 0.375,-0.044 0.375,-0.072L0.375,-0.284C0.375,-0.318 0.374,-0.344 0.372,-0.362C0.369,-0.381 0.363,-0.396 0.353,-0.408C0.343,-0.42 0.327,-0.426 0.305,-0.426C0.262,-0.426 0.233,-0.411 0.219,-0.381C0.205,-0.351 0.198,-0.308 0.198,-0.252L0.198,-0.072C0.198,-0.044 0.192,-0.023 0.179,-0.009C0.167,0.005 0.15,0.012 0.13,0.012C0.11,0.012 0.093,0.005 0.08,-0.009C0.067,-0.023 0.061,-0.044 0.061,-0.072L0.061,-0.453C0.061,-0.478 0.067,-0.497 0.078,-0.51C0.09,-0.523 0.105,-0.53 0.124,-0.53C0.142,-0.53 0.157,-0.524 0.17,-0.511C0.182,-0.499 0.188,-0.482 0.188,-0.461L0.188,-0.448C0.211,-0.476 0.236,-0.496 0.262,-0.509C0.289,-0.522 0.318,-0.529 0.35,-0.529C0.384,-0.529 0.412,-0.522 0.437,-0.509C0.461,-0.495 0.48,-0.475 0.496,-0.448C0.519,-0.476 0.543,-0.496 0.568,-0.509C0.594,-0.522 0.623,-0.529 0.654,-0.529C0.69,-0.529 0.722,-0.522 0.748,-0.507C0.774,-0.493 0.794,-0.472 0.807,-0.446C0.819,-0.422 0.824,-0.384 0.824,-0.332L0.824,-0.072C0.824,-0.044 0.818,-0.023 0.805,-0.009C0.792,0.005 0.776,0.012 0.755,0.012C0.735,0.012 0.718,0.005 0.705,-0.009C0.692,-0.023 0.686,-0.044 0.686,-0.072L0.686,-0.296C0.686,-0.325 0.685,-0.347 0.682,-0.365C0.68,-0.382 0.673,-0.396 0.663,-0.408C0.652,-0.42 0.636,-0.426 0.614,-0.426C0.596,-0.426 0.58,-0.421 0.564,-0.41C0.548,-0.4 0.536,-0.386 0.527,-0.368C0.517,-0.346 0.512,-0.306 0.512,-0.249Z" style="fill-rule: nonzero;" fill="#87CDDE"></path>
                    </g>
                    <g transform="matrix(110.388,0,0,110.388,194.581,297.034)" fill="#0088AA">
                        <path d="M0.406,-0.063C0.374,-0.038 0.342,-0.019 0.312,-0.007C0.282,0.006 0.248,0.012 0.211,0.012C0.177,0.012 0.147,0.005 0.121,-0.008C0.095,-0.022 0.075,-0.04 0.061,-0.063C0.047,-0.086 0.04,-0.111 0.04,-0.138C0.04,-0.175 0.052,-0.206 0.075,-0.231C0.098,-0.257 0.13,-0.274 0.17,-0.283C0.178,-0.285 0.199,-0.29 0.233,-0.296C0.266,-0.303 0.295,-0.309 0.319,-0.315C0.343,-0.321 0.369,-0.328 0.397,-0.336C0.395,-0.371 0.388,-0.397 0.376,-0.413C0.363,-0.43 0.337,-0.438 0.298,-0.438C0.264,-0.438 0.239,-0.433 0.221,-0.424C0.204,-0.414 0.19,-0.4 0.177,-0.381C0.165,-0.362 0.157,-0.35 0.152,-0.344C0.147,-0.338 0.136,-0.335 0.119,-0.335C0.104,-0.335 0.091,-0.34 0.08,-0.349C0.069,-0.359 0.064,-0.371 0.064,-0.386C0.064,-0.41 0.072,-0.432 0.089,-0.455C0.105,-0.477 0.131,-0.495 0.167,-0.509C0.202,-0.524 0.245,-0.531 0.298,-0.531C0.356,-0.531 0.403,-0.524 0.436,-0.51C0.47,-0.496 0.493,-0.474 0.507,-0.444C0.521,-0.414 0.528,-0.375 0.528,-0.325C0.528,-0.294 0.528,-0.267 0.528,-0.246C0.527,-0.224 0.527,-0.2 0.527,-0.173C0.527,-0.148 0.531,-0.122 0.539,-0.094C0.548,-0.067 0.552,-0.05 0.552,-0.042C0.552,-0.028 0.545,-0.016 0.532,-0.005C0.52,0.007 0.505,0.012 0.489,0.012C0.475,0.012 0.462,0.006 0.448,-0.007C0.435,-0.02 0.421,-0.039 0.406,-0.063ZM0.397,-0.256C0.377,-0.249 0.349,-0.241 0.312,-0.233C0.274,-0.225 0.249,-0.219 0.234,-0.216C0.22,-0.212 0.206,-0.205 0.193,-0.194C0.18,-0.183 0.174,-0.167 0.174,-0.148C0.174,-0.128 0.181,-0.111 0.197,-0.096C0.212,-0.082 0.232,-0.075 0.257,-0.075C0.283,-0.075 0.308,-0.081 0.33,-0.093C0.352,-0.104 0.368,-0.119 0.379,-0.137C0.391,-0.157 0.397,-0.191 0.397,-0.237L0.397,-0.256Z" style="fill-rule: nonzero;" fill="#87CDDE"></path>
                    </g>
                    <g transform="matrix(110.388,0,0,110.388,260.177,297.034)" fill="#0088AA">
                        <path d="M0.201,-0.18L0.201,-0.069C0.201,-0.042 0.195,-0.022 0.182,-0.008C0.169,0.005 0.153,0.012 0.134,0.012C0.115,0.012 0.099,0.005 0.086,-0.008C0.074,-0.022 0.068,-0.042 0.068,-0.069L0.068,-0.44C0.068,-0.5 0.09,-0.53 0.133,-0.53C0.155,-0.53 0.171,-0.523 0.181,-0.509C0.19,-0.495 0.196,-0.474 0.197,-0.447C0.213,-0.474 0.229,-0.495 0.246,-0.509C0.263,-0.523 0.285,-0.53 0.313,-0.53C0.341,-0.53 0.368,-0.523 0.395,-0.509C0.421,-0.495 0.434,-0.476 0.434,-0.453C0.434,-0.437 0.428,-0.423 0.417,-0.413C0.406,-0.402 0.394,-0.397 0.381,-0.397C0.376,-0.397 0.364,-0.4 0.345,-0.406C0.327,-0.412 0.31,-0.415 0.296,-0.415C0.276,-0.415 0.26,-0.41 0.248,-0.4C0.236,-0.389 0.226,-0.374 0.219,-0.354C0.212,-0.334 0.208,-0.31 0.205,-0.282C0.202,-0.254 0.201,-0.22 0.201,-0.18Z" style="fill-rule: nonzero;" fill="#87CDDE"></path>
                    </g>
                    <g transform="matrix(530.257,0,0,509.764,281.078,502.573)" fill="#0088AA">
                        <path d="M0.192,-0.455L0.192,-0.439C0.217,-0.47 0.243,-0.493 0.27,-0.507C0.297,-0.522 0.328,-0.529 0.362,-0.529C0.403,-0.529 0.441,-0.518 0.475,-0.497C0.51,-0.476 0.537,-0.445 0.557,-0.404C0.577,-0.364 0.587,-0.315 0.587,-0.26C0.587,-0.219 0.581,-0.181 0.57,-0.147C0.558,-0.112 0.542,-0.084 0.522,-0.06C0.502,-0.037 0.478,-0.019 0.45,-0.007C0.423,0.006 0.393,0.012 0.362,0.012C0.324,0.012 0.292,0.005 0.266,-0.011C0.24,-0.026 0.215,-0.049 0.192,-0.078L0.192,0.122C0.192,0.181 0.171,0.21 0.128,0.21C0.103,0.21 0.086,0.202 0.078,0.187C0.07,0.172 0.066,0.15 0.066,0.121L0.066,-0.454C0.066,-0.479 0.071,-0.498 0.083,-0.511C0.094,-0.524 0.109,-0.53 0.128,-0.53C0.147,-0.53 0.162,-0.523 0.174,-0.51C0.186,-0.498 0.192,-0.479 0.192,-0.455ZM0.453,-0.261C0.453,-0.296 0.448,-0.327 0.437,-0.352C0.426,-0.377 0.411,-0.396 0.392,-0.41C0.373,-0.423 0.352,-0.43 0.329,-0.43C0.292,-0.43 0.261,-0.416 0.236,-0.387C0.211,-0.358 0.198,-0.315 0.198,-0.259C0.198,-0.206 0.211,-0.164 0.236,-0.135C0.261,-0.106 0.292,-0.091 0.329,-0.091C0.351,-0.091 0.372,-0.097 0.391,-0.11C0.41,-0.123 0.425,-0.142 0.436,-0.168C0.447,-0.194 0.453,-0.225 0.453,-0.261Z" style="fill-rule: nonzero;" fill="#FFFFFF"></path>
                    </g>
                </g>
                <g transform="matrix(1,0,0,1,1,67.3519)" fill="#0088AA">
                    <path d="M15.565,301.38C99.746,236.646 195.332,213.908 285.252,284.5C294.539,291.791 322.947,317.194 325.315,327.979C320.156,326.488 309.529,316.629 304.683,312.846C209.447,238.492 123.474,248.042 33.673,323.363C27.603,328.364 18.628,327.496 13.628,321.425C8.627,315.355 9.495,306.38 15.565,301.38" style="" fill="#FFFFFF"></path>
                </g>
                <g transform="matrix(1,0,0,1,1,-450.783)" fill="#0088AA">
                    <path d="M169.542,571.309C192.244,571.309 210.648,552.905 210.648,530.203C210.648,507.501 192.244,489.097 169.542,489.097C146.84,489.097 128.436,507.501 128.436,530.203C128.436,552.905 146.84,571.309 169.542,571.309Z" style="" stroke="#FFD42A" fill="#FFD42A" stroke-width="0.87px"></path>
                </g>
                <g fill="#0088AA">
                    <g transform="matrix(33.536,0,0,33.536,84.0803,421.451)" fill="#0088AA">
                        <path d="M0.293,-0.094L0.336,-0.094L0.336,-0.008L0.16,-0.008L0.16,-0.094L0.203,-0.094L0.203,-0.684L0.16,-0.684L0.16,-0.77L0.336,-0.77L0.336,-0.684L0.293,-0.684L0.293,-0.094Z" style="fill-rule: nonzero;" fill="#FFFFFF"></path>
                    </g>
                    <g transform="matrix(33.536,0,0,33.536,100.848,421.451)" fill="#0088AA">
                        <path d="M0.449,-0.77L0.449,-0.008L0.34,-0.008L0.137,-0.578L0.133,-0.578L0.133,-0.008L0.043,-0.008L0.043,-0.77L0.152,-0.77L0.355,-0.199L0.359,-0.199L0.359,-0.77L0.449,-0.77Z" style="fill-rule: nonzero;" fill="#FFFFFF"></path>
                    </g>
                    <g transform="matrix(33.536,0,0,33.536,117.616,421.451)" fill="#0088AA">
                        <path d="M0.203,-0.484C0.258,-0.438 0.313,-0.398 0.367,-0.367C0.427,-0.333 0.457,-0.284 0.457,-0.219C0.457,-0.154 0.438,-0.102 0.398,-0.063C0.362,-0.026 0.311,-0.008 0.246,-0.008C0.184,-0.008 0.135,-0.025 0.102,-0.059C0.06,-0.1 0.039,-0.15 0.039,-0.207L0.039,-0.246L0.129,-0.246L0.129,-0.211C0.129,-0.169 0.139,-0.138 0.16,-0.117C0.181,-0.096 0.207,-0.086 0.238,-0.086C0.28,-0.086 0.311,-0.096 0.332,-0.117C0.355,-0.141 0.367,-0.171 0.367,-0.207C0.367,-0.246 0.349,-0.277 0.313,-0.301C0.247,-0.342 0.186,-0.387 0.129,-0.434C0.087,-0.467 0.065,-0.513 0.063,-0.57C0.06,-0.628 0.079,-0.676 0.121,-0.715C0.16,-0.751 0.203,-0.77 0.25,-0.77C0.307,-0.77 0.352,-0.754 0.383,-0.723C0.422,-0.684 0.44,-0.629 0.438,-0.559L0.348,-0.559C0.353,-0.603 0.342,-0.638 0.316,-0.664C0.298,-0.682 0.276,-0.691 0.25,-0.691C0.224,-0.691 0.202,-0.682 0.184,-0.664C0.16,-0.641 0.148,-0.613 0.148,-0.582C0.148,-0.548 0.167,-0.516 0.203,-0.484Z" style="fill-rule: nonzero;" fill="#FFFFFF"></path>
                    </g>
                    <g transform="matrix(33.536,0,0,33.536,134.384,421.451)" fill="#0088AA">
                        <path d="M0.199,-0.008L0.199,-0.695L0.047,-0.695L0.047,-0.77L0.449,-0.77L0.449,-0.695L0.289,-0.695L0.289,-0.008L0.199,-0.008Z" style="fill-rule: nonzero;" fill="#FFFFFF"></path>
                    </g>
                    <g transform="matrix(33.536,0,0,33.536,151.152,421.451)" fill="#0088AA">
                        <path d="M0.293,-0.094L0.336,-0.094L0.336,-0.008L0.16,-0.008L0.16,-0.094L0.203,-0.094L0.203,-0.684L0.16,-0.684L0.16,-0.77L0.336,-0.77L0.336,-0.684L0.293,-0.684L0.293,-0.094Z" style="fill-rule: nonzero;" fill="#FFFFFF"></path>
                    </g>
                    <g transform="matrix(33.536,0,0,33.536,167.92,421.451)" fill="#0088AA">
                        <path d="M0.199,-0.008L0.199,-0.695L0.047,-0.695L0.047,-0.77L0.449,-0.77L0.449,-0.695L0.289,-0.695L0.289,-0.008L0.199,-0.008Z" style="fill-rule: nonzero;" fill="#FFFFFF"></path>
                    </g>
                    <g transform="matrix(33.536,0,0,33.536,184.688,421.451)" fill="#0088AA">
                        <path d="M0.047,-0.77L0.137,-0.77L0.137,-0.211C0.137,-0.169 0.146,-0.139 0.164,-0.121C0.182,-0.103 0.21,-0.094 0.246,-0.094L0.25,-0.094C0.284,-0.094 0.31,-0.103 0.328,-0.121C0.349,-0.142 0.359,-0.172 0.359,-0.211L0.359,-0.77L0.449,-0.77L0.449,-0.211C0.449,-0.143 0.43,-0.09 0.391,-0.051C0.362,-0.022 0.315,-0.008 0.25,-0.008L0.246,-0.008C0.181,-0.008 0.134,-0.022 0.105,-0.051C0.066,-0.09 0.047,-0.143 0.047,-0.211L0.047,-0.77Z" style="fill-rule: nonzero;" fill="#FFFFFF"></path>
                    </g>
                    <g transform="matrix(33.536,0,0,33.536,201.456,421.451)" fill="#0088AA">
                        <path d="M0.199,-0.008L0.199,-0.695L0.047,-0.695L0.047,-0.77L0.449,-0.77L0.449,-0.695L0.289,-0.695L0.289,-0.008L0.199,-0.008Z" style="fill-rule: nonzero;" fill="#FFFFFF"></path>
                    </g>
                    <g transform="matrix(33.536,0,0,33.536,218.224,421.451)" fill="#0088AA">
                        <path d="M0.379,-0.719C0.436,-0.661 0.465,-0.552 0.465,-0.391C0.465,-0.227 0.436,-0.116 0.379,-0.059C0.345,-0.025 0.302,-0.008 0.25,-0.008C0.195,-0.008 0.151,-0.025 0.117,-0.059C0.06,-0.116 0.031,-0.227 0.031,-0.391C0.031,-0.552 0.06,-0.661 0.117,-0.719C0.151,-0.753 0.195,-0.77 0.25,-0.77C0.302,-0.77 0.345,-0.753 0.379,-0.719ZM0.172,-0.66C0.138,-0.626 0.121,-0.536 0.121,-0.391C0.121,-0.242 0.138,-0.151 0.172,-0.117C0.195,-0.094 0.221,-0.082 0.25,-0.082C0.276,-0.082 0.301,-0.094 0.324,-0.117C0.358,-0.151 0.375,-0.242 0.375,-0.391C0.375,-0.536 0.358,-0.626 0.324,-0.66C0.301,-0.684 0.276,-0.695 0.25,-0.695C0.221,-0.695 0.195,-0.684 0.172,-0.66Z" style="fill-rule: nonzero;" fill="#FFFFFF"></path>
                    </g>
                    <g transform="matrix(33.536,0,0,33.536,251.76,421.451)" fill="#0088AA">
                        <path d="M0.18,-0.082C0.227,-0.082 0.268,-0.1 0.305,-0.137C0.344,-0.176 0.363,-0.259 0.363,-0.387C0.363,-0.517 0.342,-0.603 0.301,-0.645C0.267,-0.678 0.227,-0.695 0.18,-0.695L0.137,-0.695L0.137,-0.082L0.18,-0.082ZM0.18,-0.77C0.26,-0.77 0.324,-0.746 0.371,-0.699C0.431,-0.639 0.461,-0.535 0.461,-0.387C0.461,-0.241 0.434,-0.141 0.379,-0.086C0.327,-0.034 0.26,-0.008 0.18,-0.008L0.047,-0.008L0.047,-0.77L0.18,-0.77Z" style="fill-rule: nonzero;" fill="#FFFFFF"></path>
                    </g>
                    <g transform="matrix(33.536,0,0,33.536,268.528,421.451)" fill="#0088AA">
                        <path d="M0.148,-0.449L0.414,-0.449L0.414,-0.375L0.148,-0.375L0.148,-0.082L0.457,-0.082L0.457,-0.008L0.059,-0.008L0.059,-0.77L0.438,-0.77L0.438,-0.695L0.148,-0.695L0.148,-0.449Z" style="fill-rule: nonzero;" fill="#FFFFFF"></path>
                    </g>
                    <g transform="matrix(36.734,0,0,36.734,84.0803,457.735)" fill="#0088AA">
                        <path d="M0.148,-0.449L0.414,-0.449L0.414,-0.375L0.148,-0.375L0.148,-0.082L0.457,-0.082L0.457,-0.008L0.059,-0.008L0.059,-0.77L0.438,-0.77L0.438,-0.695L0.148,-0.695L0.148,-0.449Z" style="fill-rule: nonzero;" fill="#FFFFFF"></path>
                    </g>
                    <g transform="matrix(36.734,0,0,36.734,106.937,457.735)" fill="#0088AA">
                        <path d="M0.18,-0.082C0.227,-0.082 0.268,-0.1 0.305,-0.137C0.344,-0.176 0.363,-0.259 0.363,-0.387C0.363,-0.517 0.342,-0.603 0.301,-0.645C0.267,-0.678 0.227,-0.695 0.18,-0.695L0.137,-0.695L0.137,-0.082L0.18,-0.082ZM0.18,-0.77C0.26,-0.77 0.324,-0.746 0.371,-0.699C0.431,-0.639 0.461,-0.535 0.461,-0.387C0.461,-0.241 0.434,-0.141 0.379,-0.086C0.327,-0.034 0.26,-0.008 0.18,-0.008L0.047,-0.008L0.047,-0.77L0.18,-0.77Z" style="fill-rule: nonzero;" fill="#FFFFFF"></path>
                    </g>
                    <g transform="matrix(36.734,0,0,36.734,129.793,457.735)" fill="#0088AA">
                        <path d="M0.047,-0.77L0.137,-0.77L0.137,-0.211C0.137,-0.169 0.146,-0.139 0.164,-0.121C0.182,-0.103 0.21,-0.094 0.246,-0.094L0.25,-0.094C0.284,-0.094 0.31,-0.103 0.328,-0.121C0.349,-0.142 0.359,-0.172 0.359,-0.211L0.359,-0.77L0.449,-0.77L0.449,-0.211C0.449,-0.143 0.43,-0.09 0.391,-0.051C0.362,-0.022 0.315,-0.008 0.25,-0.008L0.246,-0.008C0.181,-0.008 0.134,-0.022 0.105,-0.051C0.066,-0.09 0.047,-0.143 0.047,-0.211L0.047,-0.77Z" style="fill-rule: nonzero;" fill="#FFFFFF"></path>
                    </g>
                    <g transform="matrix(36.734,0,0,36.734,152.65,457.735)" fill="#0088AA">
                        <path d="M0.469,-0.301C0.461,-0.184 0.436,-0.104 0.395,-0.063C0.358,-0.026 0.315,-0.008 0.266,-0.008C0.216,-0.008 0.173,-0.026 0.137,-0.063C0.072,-0.128 0.039,-0.229 0.039,-0.367C0.039,-0.529 0.074,-0.645 0.145,-0.715C0.181,-0.751 0.223,-0.77 0.27,-0.77C0.319,-0.77 0.358,-0.755 0.387,-0.727C0.441,-0.672 0.467,-0.598 0.465,-0.504L0.379,-0.504C0.376,-0.587 0.361,-0.643 0.332,-0.672C0.316,-0.688 0.296,-0.695 0.27,-0.695C0.246,-0.695 0.225,-0.686 0.207,-0.668C0.155,-0.616 0.129,-0.518 0.129,-0.375C0.129,-0.25 0.151,-0.165 0.195,-0.121C0.216,-0.1 0.24,-0.09 0.266,-0.09C0.289,-0.09 0.311,-0.1 0.332,-0.121C0.358,-0.147 0.372,-0.207 0.375,-0.301L0.469,-0.301Z" style="fill-rule: nonzero;" fill="#FFFFFF"></path>
                    </g>
                    <g transform="matrix(36.734,0,0,36.734,175.507,457.735)" fill="#0088AA">
                        <path d="M0.109,-0.008L0.016,-0.008L0.211,-0.77L0.289,-0.77L0.484,-0.008L0.391,-0.008L0.336,-0.23L0.164,-0.23L0.109,-0.008ZM0.254,-0.563L0.246,-0.563L0.184,-0.305L0.316,-0.305L0.254,-0.563Z" style="fill-rule: nonzero;" fill="#FFFFFF"></path>
                    </g>
                    <g transform="matrix(36.734,0,0,36.734,198.363,457.735)" fill="#0088AA">
                        <path d="M0.469,-0.301C0.461,-0.184 0.436,-0.104 0.395,-0.063C0.358,-0.026 0.315,-0.008 0.266,-0.008C0.216,-0.008 0.173,-0.026 0.137,-0.063C0.072,-0.128 0.039,-0.229 0.039,-0.367C0.039,-0.529 0.074,-0.645 0.145,-0.715C0.181,-0.751 0.223,-0.77 0.27,-0.77C0.319,-0.77 0.358,-0.755 0.387,-0.727C0.441,-0.672 0.467,-0.598 0.465,-0.504L0.379,-0.504C0.376,-0.587 0.361,-0.643 0.332,-0.672C0.316,-0.688 0.296,-0.695 0.27,-0.695C0.246,-0.695 0.225,-0.686 0.207,-0.668C0.155,-0.616 0.129,-0.518 0.129,-0.375C0.129,-0.25 0.151,-0.165 0.195,-0.121C0.216,-0.1 0.24,-0.09 0.266,-0.09C0.289,-0.09 0.311,-0.1 0.332,-0.121C0.358,-0.147 0.372,-0.207 0.375,-0.301L0.469,-0.301Z" style="fill-rule: nonzero;" fill="#FFFFFF"></path>
                    </g>
                    <g transform="matrix(36.734,0,0,36.734,221.22,457.735)" fill="#0088AA">
                        <path d="M0.293,-0.094L0.336,-0.094L0.336,-0.008L0.16,-0.008L0.16,-0.094L0.203,-0.094L0.203,-0.684L0.16,-0.684L0.16,-0.77L0.336,-0.77L0.336,-0.684L0.293,-0.684L0.293,-0.094Z" style="fill-rule: nonzero;" fill="#FFFFFF"></path>
                    </g>
                    <g transform="matrix(36.734,0,0,36.734,244.077,457.735)" fill="#0088AA">
                        <path d="M0.246,-0.727L0.18,-0.727L0.293,-0.855L0.41,-0.855L0.246,-0.727ZM0.379,-0.645C0.436,-0.577 0.465,-0.482 0.465,-0.359C0.465,-0.221 0.436,-0.121 0.379,-0.059C0.35,-0.025 0.307,-0.008 0.25,-0.008C0.19,-0.008 0.146,-0.025 0.117,-0.059C0.06,-0.121 0.031,-0.221 0.031,-0.359C0.031,-0.482 0.06,-0.577 0.117,-0.645C0.146,-0.678 0.19,-0.695 0.25,-0.695C0.307,-0.695 0.35,-0.678 0.379,-0.645ZM0.324,-0.586C0.306,-0.609 0.281,-0.621 0.25,-0.621C0.216,-0.621 0.19,-0.609 0.172,-0.586C0.138,-0.542 0.121,-0.466 0.121,-0.359C0.121,-0.237 0.138,-0.156 0.172,-0.117C0.19,-0.094 0.216,-0.082 0.25,-0.082C0.281,-0.082 0.306,-0.094 0.324,-0.117C0.358,-0.156 0.375,-0.237 0.375,-0.359C0.375,-0.466 0.358,-0.542 0.324,-0.586Z" style="fill-rule: nonzero;" fill="#FFFFFF"></path>
                    </g>
                    <g transform="matrix(36.734,0,0,36.734,266.933,457.735)" fill="#0088AA">
                        <path d="M0.449,-0.77L0.449,-0.008L0.34,-0.008L0.137,-0.578L0.133,-0.578L0.133,-0.008L0.043,-0.008L0.043,-0.77L0.152,-0.77L0.355,-0.199L0.359,-0.199L0.359,-0.77L0.449,-0.77Z" style="fill-rule: nonzero;" fill="#FFFFFF"></path>
                    </g>
                    <g transform="matrix(36.734,0,0,36.734,84.0806,494.469)" fill="#0088AA">
                        <path d="M0.203,-0.484C0.258,-0.438 0.313,-0.398 0.367,-0.367C0.427,-0.333 0.457,-0.284 0.457,-0.219C0.457,-0.154 0.438,-0.102 0.398,-0.063C0.362,-0.026 0.311,-0.008 0.246,-0.008C0.184,-0.008 0.135,-0.025 0.102,-0.059C0.06,-0.1 0.039,-0.15 0.039,-0.207L0.039,-0.246L0.129,-0.246L0.129,-0.211C0.129,-0.169 0.139,-0.138 0.16,-0.117C0.181,-0.096 0.207,-0.086 0.238,-0.086C0.28,-0.086 0.311,-0.096 0.332,-0.117C0.355,-0.141 0.367,-0.171 0.367,-0.207C0.367,-0.246 0.349,-0.277 0.313,-0.301C0.247,-0.342 0.186,-0.387 0.129,-0.434C0.087,-0.467 0.065,-0.513 0.063,-0.57C0.06,-0.628 0.079,-0.676 0.121,-0.715C0.16,-0.751 0.203,-0.77 0.25,-0.77C0.307,-0.77 0.352,-0.754 0.383,-0.723C0.422,-0.684 0.44,-0.629 0.438,-0.559L0.348,-0.559C0.353,-0.603 0.342,-0.638 0.316,-0.664C0.298,-0.682 0.276,-0.691 0.25,-0.691C0.224,-0.691 0.202,-0.682 0.184,-0.664C0.16,-0.641 0.148,-0.613 0.148,-0.582C0.148,-0.548 0.167,-0.516 0.203,-0.484Z" style="fill-rule: nonzero;" fill="#FFFFFF"></path>
                    </g>
                    <g transform="matrix(36.734,0,0,36.734,104.397,494.469)" fill="#0088AA">
                        <path d="M0.148,-0.449L0.414,-0.449L0.414,-0.375L0.148,-0.375L0.148,-0.082L0.457,-0.082L0.457,-0.008L0.059,-0.008L0.059,-0.77L0.438,-0.77L0.438,-0.695L0.148,-0.695L0.148,-0.449Z" style="fill-rule: nonzero;" fill="#FFFFFF"></path>
                    </g>
                    <g transform="matrix(36.734,0,0,36.734,124.714,494.469)" fill="#0088AA">
                        <path d="M0.469,-0.301C0.461,-0.184 0.436,-0.104 0.395,-0.063C0.358,-0.026 0.315,-0.008 0.266,-0.008C0.216,-0.008 0.173,-0.026 0.137,-0.063C0.072,-0.128 0.039,-0.229 0.039,-0.367C0.039,-0.529 0.074,-0.645 0.145,-0.715C0.181,-0.751 0.223,-0.77 0.27,-0.77C0.319,-0.77 0.358,-0.755 0.387,-0.727C0.441,-0.672 0.467,-0.598 0.465,-0.504L0.379,-0.504C0.376,-0.587 0.361,-0.643 0.332,-0.672C0.316,-0.688 0.296,-0.695 0.27,-0.695C0.246,-0.695 0.225,-0.686 0.207,-0.668C0.155,-0.616 0.129,-0.518 0.129,-0.375C0.129,-0.25 0.151,-0.165 0.195,-0.121C0.216,-0.1 0.24,-0.09 0.266,-0.09C0.289,-0.09 0.311,-0.1 0.332,-0.121C0.358,-0.147 0.372,-0.207 0.375,-0.301L0.469,-0.301Z" style="fill-rule: nonzero;" fill="#FFFFFF"></path>
                    </g>
                    <g transform="matrix(36.734,0,0,36.734,145.031,494.469)" fill="#0088AA">
                        <path d="M0.047,-0.77L0.137,-0.77L0.137,-0.211C0.137,-0.169 0.146,-0.139 0.164,-0.121C0.182,-0.103 0.21,-0.094 0.246,-0.094L0.25,-0.094C0.284,-0.094 0.31,-0.103 0.328,-0.121C0.349,-0.142 0.359,-0.172 0.359,-0.211L0.359,-0.77L0.449,-0.77L0.449,-0.211C0.449,-0.143 0.43,-0.09 0.391,-0.051C0.362,-0.022 0.315,-0.008 0.25,-0.008L0.246,-0.008C0.181,-0.008 0.134,-0.022 0.105,-0.051C0.066,-0.09 0.047,-0.143 0.047,-0.211L0.047,-0.77Z" style="fill-rule: nonzero;" fill="#FFFFFF"></path>
                    </g>
                    <g transform="matrix(36.734,0,0,36.734,165.347,494.469)" fill="#0088AA">
                        <path d="M0.449,-0.77L0.449,-0.008L0.34,-0.008L0.137,-0.578L0.133,-0.578L0.133,-0.008L0.043,-0.008L0.043,-0.77L0.152,-0.77L0.355,-0.199L0.359,-0.199L0.359,-0.77L0.449,-0.77Z" style="fill-rule: nonzero;" fill="#FFFFFF"></path>
                    </g>
                    <g transform="matrix(36.734,0,0,36.734,185.664,494.469)" fill="#0088AA">
                        <path d="M0.18,-0.082C0.227,-0.082 0.268,-0.1 0.305,-0.137C0.344,-0.176 0.363,-0.259 0.363,-0.387C0.363,-0.517 0.342,-0.603 0.301,-0.645C0.267,-0.678 0.227,-0.695 0.18,-0.695L0.137,-0.695L0.137,-0.082L0.18,-0.082ZM0.18,-0.77C0.26,-0.77 0.324,-0.746 0.371,-0.699C0.431,-0.639 0.461,-0.535 0.461,-0.387C0.461,-0.241 0.434,-0.141 0.379,-0.086C0.327,-0.034 0.26,-0.008 0.18,-0.008L0.047,-0.008L0.047,-0.77L0.18,-0.77Z" style="fill-rule: nonzero;" fill="#FFFFFF"></path>
                    </g>
                    <g transform="matrix(36.734,0,0,36.734,205.981,494.469)" fill="#0088AA">
                        <path d="M0.109,-0.008L0.016,-0.008L0.211,-0.77L0.289,-0.77L0.484,-0.008L0.391,-0.008L0.336,-0.23L0.164,-0.23L0.109,-0.008ZM0.254,-0.563L0.246,-0.563L0.184,-0.305L0.316,-0.305L0.254,-0.563Z" style="fill-rule: nonzero;" fill="#FFFFFF"></path>
                    </g>
                    <g transform="matrix(36.734,0,0,36.734,226.297,494.469)" fill="#0088AA">
                        <path d="M0.25,-0.434C0.281,-0.434 0.309,-0.445 0.332,-0.469C0.353,-0.49 0.363,-0.521 0.363,-0.563C0.363,-0.602 0.352,-0.633 0.328,-0.656C0.302,-0.682 0.267,-0.695 0.223,-0.695L0.137,-0.695L0.137,-0.434L0.25,-0.434ZM0.242,-0.77C0.307,-0.77 0.361,-0.749 0.402,-0.707C0.436,-0.673 0.453,-0.625 0.453,-0.563C0.453,-0.505 0.436,-0.458 0.402,-0.422C0.379,-0.396 0.355,-0.379 0.332,-0.371L0.473,-0.008L0.379,-0.008L0.246,-0.359L0.137,-0.359L0.137,-0.008L0.047,-0.008L0.047,-0.77L0.242,-0.77Z" style="fill-rule: nonzero;" fill="#FFFFFF"></path>
                    </g>
                    <g transform="matrix(36.734,0,0,36.734,246.614,494.469)" fill="#0088AA">
                        <path d="M0.293,-0.094L0.336,-0.094L0.336,-0.008L0.16,-0.008L0.16,-0.094L0.203,-0.094L0.203,-0.684L0.16,-0.684L0.16,-0.77L0.336,-0.77L0.336,-0.684L0.293,-0.684L0.293,-0.094Z" style="fill-rule: nonzero;" fill="#FFFFFF"></path>
                    </g>
                    <g transform="matrix(36.734,0,0,36.734,266.931,494.469)" fill="#0088AA">
                        <path d="M0.109,-0.008L0.016,-0.008L0.211,-0.77L0.289,-0.77L0.484,-0.008L0.391,-0.008L0.336,-0.23L0.164,-0.23L0.109,-0.008ZM0.254,-0.563L0.246,-0.563L0.184,-0.305L0.316,-0.305L0.254,-0.563Z" style="fill-rule: nonzero;" fill="#FFFFFF"></path>
                    </g>
                </g>
            </g>
        </g>
    </g>
</svg>